<?xml version="1.0" encoding="UTF-8"?>
<svg version="1.1" xmlns="http://www.w3.org/2000/svg" width="512" height="512">
<path d="M0 0 C1.01790619 0.00215515 2.03581238 0.0043103 3.08456421 0.00653076 C17.69363523 0.05620146 32.02575853 0.30709809 46.375 3.3125 C47.34985352 3.51117676 48.32470703 3.70985352 49.32910156 3.91455078 C97.7109774 14.03517194 141.69928269 35.9516877 177.375 70.3125 C178.3640332 71.26068604 178.3640332 71.26068604 179.37304688 72.22802734 C188.86130305 81.37247479 197.6012044 90.66984009 205.375 101.3125 C206.23306152 102.46355017 207.09113451 103.61459177 207.94921875 104.765625 C213.98736829 112.95680614 219.34595521 121.47054105 224.375 130.3125 C224.73948242 130.94430176 225.10396484 131.57610352 225.47949219 132.22705078 C247.08534998 169.97532572 256.85198095 212.74189997 256.6875 255.9375 C256.68534485 256.95540619 256.6831897 257.97331238 256.68096924 259.02206421 C256.63129854 273.63113523 256.38040191 287.96325853 253.375 302.3125 C253.07698486 303.77478027 253.07698486 303.77478027 252.77294922 305.26660156 C242.65232806 353.6484774 220.7358123 397.63678269 186.375 433.3125 C185.74287598 433.97185547 185.11075195 434.63121094 184.45947266 435.31054688 C175.31502521 444.79880305 166.01765991 453.5387044 155.375 461.3125 C154.22394983 462.17056152 153.07290823 463.02863451 151.921875 463.88671875 C143.73224019 469.92427396 135.22961724 475.30707302 126.375 480.3125 C125.66778809 480.7146875 124.96057617 481.116875 124.23193359 481.53125 C101.09654164 494.5566741 75.92537591 503.30551461 49.9375 508.625 C49.21860596 508.77235596 48.49971191 508.91971191 47.7590332 509.0715332 C33.08339502 511.86090125 18.55831162 512.66142619 3.64770508 512.62817383 C0.70811513 512.6250221 -2.2304558 512.64854926 -5.16992188 512.67382812 C-18.54306192 512.71848737 -31.43916711 511.51301542 -44.625 509.3125 C-46.33055054 509.03031616 -46.33055054 509.03031616 -48.07055664 508.74243164 C-91.33802759 500.97044532 -132.38793216 480.98345309 -165.625 452.3125 C-166.37007813 451.67828125 -167.11515625 451.0440625 -167.8828125 450.390625 C-181.38779833 438.57948485 -194.05918743 425.82889772 -204.625 411.3125 C-205.48149066 410.16255169 -206.33826433 409.01281411 -207.1953125 407.86328125 C-213.23534209 399.67315742 -218.61867614 391.16870382 -223.625 382.3125 C-224.0271875 381.60528809 -224.429375 380.89807617 -224.84375 380.16943359 C-237.8691741 357.03404164 -246.61801461 331.86287591 -251.9375 305.875 C-252.08485596 305.15610596 -252.23221191 304.43721191 -252.3840332 303.6965332 C-255.35789088 288.05024391 -255.99800362 272.57681954 -255.9375 256.6875 C-255.93534485 255.66959381 -255.9331897 254.65168762 -255.93096924 253.60293579 C-255.88129854 238.99386477 -255.63040191 224.66174147 -252.625 210.3125 C-252.42632324 209.33764648 -252.22764648 208.36279297 -252.02294922 207.35839844 C-241.90232806 158.9765226 -219.9858123 114.98821731 -185.625 79.3125 C-184.99287598 78.65314453 -184.36075195 77.99378906 -183.70947266 77.31445312 C-174.56502521 67.82619695 -165.26765991 59.0862956 -154.625 51.3125 C-153.47394983 50.45443848 -152.32290823 49.59636549 -151.171875 48.73828125 C-142.98224019 42.70072604 -134.47961724 37.31792698 -125.625 32.3125 C-124.91778809 31.9103125 -124.21057617 31.508125 -123.48193359 31.09375 C-100.34654164 18.0683259 -75.17537591 9.31948539 -49.1875 4 C-48.46860596 3.85264404 -47.74971191 3.70528809 -47.0090332 3.5534668 C-31.36274391 0.57960912 -15.88931954 -0.06050362 0 0 Z " fill="#283B55" transform="translate(255.625,-0.3125)"/>
<path d="M0 0 C1.89105469 -0.05607422 1.89105469 -0.05607422 3.8203125 -0.11328125 C12.67967349 0.34975532 20.93572257 6.43828272 28.4375 10.6875 C29.52812744 11.30181885 30.61875488 11.9161377 31.74243164 12.54907227 C41.14468889 17.86191973 50.47588745 23.29350117 59.79296875 28.75390625 C73.95503179 37.05154299 88.19334731 45.21882224 102.45117188 53.35058594 C108.26262935 56.66508871 114.06988042 59.98690844 119.875 63.3125 C121.5770459 64.28727295 121.5770459 64.28727295 123.31347656 65.28173828 C126.58758361 67.16082802 129.8570131 69.04779076 133.125 70.9375 C134.5793042 71.77099976 134.5793042 71.77099976 136.06298828 72.62133789 C156.79240056 84.65523209 156.79240056 84.65523209 159.49038124 94.57512379 C159.94091826 97.7816479 160.01384913 100.8715121 160.02890015 104.11051941 C160.0332824 104.78152201 160.03766465 105.45252462 160.0421797 106.14386064 C160.05550052 108.38521671 160.06173134 110.62653352 160.06787109 112.86791992 C160.07577733 114.47802912 160.0840466 116.08813657 160.09265137 117.69824219 C160.1188099 122.97980064 160.13417227 128.26136678 160.1484375 133.54296875 C160.15379961 135.36448992 160.15917712 137.18601104 160.16456985 139.00753212 C160.186189 146.58668806 160.20492431 154.16584192 160.21619225 161.74502087 C160.23242432 172.59000808 160.26559514 183.43463669 160.32259309 194.27948874 C160.36134687 201.91450219 160.38083133 209.54941993 160.38611281 217.18452913 C160.38975864 221.74008221 160.40169805 226.29525226 160.43421555 230.85069847 C160.4643924 235.13952604 160.47057404 239.42774069 160.45883179 243.71665192 C160.45861186 245.28472242 160.46684981 246.85282219 160.48448563 248.42079353 C160.589658 258.31547794 159.98937036 266.68511768 153.0564785 274.31343365 C147.77346216 279.41069878 141.24022003 282.82405212 134.875 286.375 C133.13110185 287.36391336 131.38721313 288.35284413 129.64407349 289.34309387 C128.4576265 290.01645985 127.27050981 290.68864718 126.08273315 291.35966492 C120.35315949 294.5967225 114.67536315 297.91916145 109 301.25 C99.73021747 306.67353063 90.41561719 312.01574914 81.08453369 317.33273315 C72.98791832 321.94734214 64.91729877 326.60366409 56.875 331.3125 C48.516115 336.20312639 40.13775088 341.05835965 31.734375 345.87207031 C30.51258695 346.57216 29.29121947 347.27298427 28.0703125 347.97460938 C24.35150399 350.11085826 20.61920904 352.22112277 16.875 354.3125 C16.11155273 354.74965332 15.34810547 355.18680664 14.56152344 355.63720703 C7.68725639 359.38090021 0.46216112 359.50714762 -7.125 358.3125 C-11.52688467 356.89503777 -15.2039186 354.74053543 -19.125 352.3125 C-20.30127734 351.62139939 -21.47978703 350.93408841 -22.66015625 350.25 C-25.4281282 348.64029958 -28.18316692 347.01057448 -30.93359375 345.37109375 C-38.07491049 341.13691259 -45.30490627 337.05434309 -52.52539062 332.95709229 C-59.14229482 329.2021515 -65.71265734 325.41037535 -72.125 321.3125 C-71.4544381 315.82603379 -69.7117302 310.95266662 -67.828125 305.79296875 C-67.31708221 304.37477592 -67.31708221 304.37477592 -66.79571533 302.92793274 C-65.66072387 299.7833636 -64.51800234 296.64166534 -63.375 293.5 C-62.56679199 291.26702309 -61.75885483 289.03394813 -60.95117188 286.80078125 C-54.46946391 268.90639365 -47.88536188 251.04972893 -41.28924561 233.19726562 C-35.11719091 216.49154465 -29.01469336 199.76301423 -23 183 C-17.05988052 166.45035221 -11.0941765 149.91045053 -5.07110596 133.39077759 C-4.24340886 131.11979848 -3.41668009 128.84846618 -2.59100342 126.57675171 C8.71854351 95.46895649 8.71854351 95.46895649 11.875 92.3125 C14.74388581 92.13717711 17.51492645 92.08112386 20.3828125 92.1171875 C21.22343231 92.1200174 22.06405212 92.12284729 22.93014526 92.12576294 C25.62024046 92.1369757 28.3100051 92.16208197 31 92.1875 C32.82160978 92.1975284 34.64322477 92.20665449 36.46484375 92.21484375 C40.93502358 92.23691858 45.40495571 92.27145566 49.875 92.3125 C51.32914732 96.87700523 49.80886542 100.20729431 48.2109375 104.54296875 C47.91212173 105.37941925 47.61330597 106.21586975 47.30543518 107.07766724 C46.29759204 109.88906374 45.27392147 112.69442295 44.25 115.5 C43.52344521 117.51495693 42.79763302 119.53018176 42.07250977 121.5456543 C35.53363108 139.67342984 28.83673885 157.74420144 22.15209961 175.81860352 C14.69918788 195.98639996 7.40808518 216.21003625 0.15829659 236.45158291 C-1.03213493 239.7751408 -2.22295762 243.09855837 -3.4140625 246.421875 C-3.76607664 247.40414157 -3.76607664 247.40414157 -4.12520218 248.40625191 C-7.7272324 258.45397512 -11.36411543 268.48863396 -15.0234375 278.515625 C-15.49912086 279.81969169 -15.97480344 281.12375866 -16.45048523 282.42782593 C-18.6900822 288.5658109 -20.93435611 294.70205622 -23.18383789 300.83642578 C-23.97551036 303.00289783 -24.76710059 305.16939994 -25.55859375 307.3359375 C-25.92298553 308.32531311 -26.28737732 309.31468872 -26.66281128 310.33404541 C-26.98992096 311.23105164 -27.31703064 312.12805786 -27.65405273 313.05224609 C-28.08294044 314.22163223 -28.08294044 314.22163223 -28.52049255 315.41464233 C-29.22616569 317.29814305 -29.22616569 317.29814305 -29.125 319.3125 C-25.37624086 321.43922557 -21.62251601 323.55682258 -17.86401367 325.66625977 C-16.58723386 326.38449897 -15.31182185 327.10517548 -14.0378418 327.82836914 C-12.20198672 328.86995346 -10.36132351 329.90255277 -8.51953125 330.93359375 C-7.41456299 331.5567749 -6.30959473 332.17995605 -5.17114258 332.82202148 C-2.29824518 334.22773108 -0.30979095 335.17211129 2.875 335.3125 C5.66713873 334.20792629 5.66713873 334.20792629 8.4375 332.41796875 C9.48164063 331.79212891 10.52578125 331.16628906 11.6015625 330.52148438 C12.68179688 329.85439453 13.76203125 329.18730469 14.875 328.5 C17.01909731 327.19895766 19.16487171 325.90067421 21.3125 324.60546875 C22.25996094 324.0230542 23.20742188 323.44063965 24.18359375 322.84057617 C26.69848035 321.41272102 29.16563066 320.31222533 31.875 319.3125 C31.29581409 317.51948831 30.71136745 315.72817597 30.125 313.9375 C29.80015625 312.93976563 29.4753125 311.94203125 29.140625 310.9140625 C28.21101595 308.26869352 27.2400731 305.68682474 26.19140625 303.08984375 C23.21141179 295.70179584 20.34847044 288.27071335 17.53686523 280.81713867 C16.88556144 279.10116288 16.22698286 277.3879312 15.5612793 275.67749023 C14.58882809 273.17570588 13.64180625 270.66550792 12.69921875 268.15234375 C12.40037277 267.39896225 12.10152679 266.64558075 11.79362488 265.86936951 C8.36383926 256.53581961 11.05294069 248.87924692 14.40234375 239.87890625 C14.92581139 238.4401841 14.92581139 238.4401841 15.45985413 236.97239685 C16.19395482 234.96137113 16.93291682 232.95211389 17.67651367 230.94458008 C18.81663273 227.86383282 19.93969141 224.77725443 21.06054688 221.68945312 C21.77765496 219.73140765 22.49571995 217.77371232 23.21484375 215.81640625 C23.71962502 214.43057091 23.71962502 214.43057091 24.23460388 213.01673889 C24.55155716 212.16502609 24.86851044 211.31331329 25.19506836 210.43579102 C25.47184921 209.68572281 25.74863007 208.9356546 26.03379822 208.16285706 C26.875 206.3125 26.875 206.3125 28.875 204.3125 C30.81494141 204.24536133 30.81494141 204.24536133 32.875 205.3125 C34.08204579 207.69842589 34.97719473 209.87470204 35.8359375 212.38671875 C36.10315109 213.12589539 36.37036469 213.86507202 36.64567566 214.62664795 C37.5286748 217.07937925 38.38911221 219.53942994 39.25 222 C39.86154463 223.71096037 40.47476821 225.42132149 41.08959961 227.13110352 C42.3741719 230.7069234 43.65133428 234.28527337 44.92431641 237.86523438 C46.82028072 243.18015266 48.76664381 248.47545623 50.73046875 253.765625 C51.04312683 254.60845535 51.35578491 255.45128571 51.67791748 256.31965637 C52.88885213 259.58220241 54.10084077 262.84435593 55.31341553 266.10629272 C65.875 294.55720718 65.875 294.55720718 65.875 298.3125 C66.79023438 297.8071875 67.70546875 297.301875 68.6484375 296.78125 C69.84883845 296.12478073 71.04936587 295.4685427 72.25 294.8125 C72.85328125 294.47863281 73.4565625 294.14476562 74.078125 293.80078125 C78.6484375 291.3125 78.6484375 291.3125 80.875 291.3125 C79.79556409 288.18614051 78.71070991 285.06168566 77.625 281.9375 C77.17447266 280.63232422 77.17447266 280.63232422 76.71484375 279.30078125 C76.41191406 278.43066406 76.10898437 277.56054688 75.796875 276.6640625 C75.52456055 275.87854004 75.25224609 275.09301758 74.97167969 274.28369141 C74.05806043 271.80845846 73.09699935 269.36758437 72.10791016 266.92211914 C69.62938148 260.75816205 67.31718981 254.53346513 65.00557327 248.30555153 C64.20674466 246.15364543 63.40623821 244.00236982 62.60531616 241.85124207 C60.33094208 235.74176682 58.05959232 229.6311685 55.7890625 223.52026367 C54.39194742 219.76041952 52.99300378 216.00125947 51.59305954 212.24246788 C51.06700078 210.8288848 50.54162585 209.41504701 50.01701736 208.00092506 C49.27557792 206.00233935 48.5320145 204.00455852 47.78759766 202.00708008 C47.43295409 201.05189846 47.43295409 201.05189846 47.07114601 200.07742023 C45.8299262 196.76085641 44.53944506 193.47381738 43.17254639 190.20687866 C42.89381872 189.53514712 42.61509106 188.86341558 42.3279171 188.17132854 C41.55420822 186.31883517 40.76733126 184.47185726 39.97958374 182.62528992 C38.25270985 177.44617112 38.51824251 173.51988007 40.40380859 168.45629883 C40.73770599 167.5454805 41.07160339 166.63466217 41.4156189 165.69624329 C41.96398911 164.24752083 41.96398911 164.24752083 42.5234375 162.76953125 C42.89602692 161.76411789 43.26861633 160.75870453 43.65249634 159.7228241 C44.43985027 157.60395174 45.23189673 155.48681792 46.02832031 153.37133789 C47.24824326 150.12966815 48.45343214 146.88281605 49.65625 143.63476562 C50.42362312 141.57520168 51.19182404 139.51594593 51.9609375 137.45703125 C52.32246918 136.48514359 52.68400085 135.51325592 53.05648804 134.51191711 C53.39668976 133.61055527 53.73689148 132.70919342 54.08740234 131.78051758 C54.38496429 130.98809158 54.68252625 130.19566559 54.98910522 129.37922668 C55.875 127.3125 55.875 127.3125 57.875 124.3125 C60.04374252 124.81853992 61.87467627 125.31233813 63.875 126.3125 C64.77816772 128.26455688 64.77816772 128.26455688 65.71240234 130.87744141 C66.06887344 131.86308578 66.42534454 132.84873016 66.7926178 133.86424255 C67.1781633 134.95318314 67.5637088 136.04212372 67.9609375 137.1640625 C68.37012924 138.30122208 68.77932098 139.43838165 69.20091248 140.61000061 C70.09019128 143.08415357 70.97680975 145.55907809 71.85903931 148.03573608 C73.25683818 151.95964447 74.66396886 155.88016129 76.07299805 159.80004883 C77.53362298 163.8645087 78.99379942 167.9291241 80.45079041 171.99488831 C83.75219349 181.20544183 87.0815663 190.40541012 90.43359375 199.59765625 C90.87850159 200.81797546 91.32340942 202.03829468 91.78179932 203.29559326 C93.49388516 207.98996126 95.20676908 212.68403626 96.92132568 217.37750244 C101.11519361 228.86218626 105.27775498 240.35695597 109.32421875 251.89453125 C109.81847099 253.29344856 109.81847099 253.29344856 110.32270813 254.72062683 C112.11882716 259.87593373 113.63935234 264.99421353 114.875 270.3125 C118.35912255 268.36288628 121.83639841 266.40137381 125.3125 264.4375 C126.30572266 263.88191406 127.29894531 263.32632812 128.32226562 262.75390625 C129.26650391 262.21894531 130.21074219 261.68398438 131.18359375 261.1328125 C132.05814209 260.64055176 132.93269043 260.14829102 133.83374023 259.64111328 C136.005808 258.47227376 136.005808 258.47227376 136.875 256.3125 C136.98832773 254.27392527 137.03654582 252.23163384 137.05581665 250.19000244 C137.07738831 248.22997284 137.07738831 248.22997284 137.09939575 246.23034668 C137.11021108 244.77368285 137.12085595 243.31701775 137.13134766 241.86035156 C137.14579306 240.33286248 137.16055066 238.80537633 137.17559814 237.27789307 C137.30588192 223.33218852 137.37173387 209.38568067 137.42344093 195.43948746 C137.46236607 185.12837786 137.53074545 174.81835925 137.63798869 164.50772882 C137.71083298 157.26011388 137.74927413 150.01279744 137.76246679 142.7648313 C137.77133486 138.43474218 137.79560706 134.10600168 137.85713577 129.77631378 C137.9143863 125.70137017 137.92905607 121.62847009 137.91126251 117.55318451 C137.91214088 116.059157 137.92839875 114.5650459 137.96130753 113.07138062 C138.38412431 105.00002935 138.38412431 105.00002935 134.91460133 98.12709045 C132.62073207 96.57187488 130.41259754 95.4135585 127.875 94.3125 C126.81531006 93.67634766 125.75562012 93.04019531 124.66381836 92.38476562 C123.69065674 91.83498047 122.71749512 91.28519531 121.71484375 90.71875 C120.60431641 90.08839844 119.49378906 89.45804687 118.34960938 88.80859375 C117.77364014 88.48358887 117.1976709 88.15858398 116.60424805 87.82373047 C113.49118921 86.06677589 110.38458283 84.29847011 107.27734375 82.53125 C106.33476212 81.99564453 106.33476212 81.99564453 105.37313843 81.44921875 C99.51367315 78.11588813 93.6907652 74.72145356 87.875 71.3125 C79.24027342 66.25577064 70.56893893 61.2664149 61.875 56.3125 C52.99503329 51.25211583 44.13769117 46.15557077 35.3125 41 C34.33740479 40.43265137 33.36230957 39.86530273 32.35766602 39.28076172 C27.6830541 36.55729561 23.02861846 33.80742225 18.40625 30.99609375 C17.54459229 30.47893799 16.68293457 29.96178223 15.79516602 29.42895508 C14.19684986 28.46877085 12.60551737 27.49681391 11.02319336 26.51049805 C6.4775548 23.79858504 3.28507051 22.32200529 -2.125 23.3125 C-5.90978488 25.04717686 -9.40024904 27.18655366 -12.9375 29.375 C-15.09186673 30.67023802 -17.24683528 31.96447543 -19.40234375 33.2578125 C-20.51206543 33.92973633 -21.62178711 34.60166016 -22.76513672 35.29394531 C-28.13438545 38.51970818 -33.56729264 41.63272445 -39 44.75 C-41.18509562 46.00876783 -43.36999043 47.26788432 -45.5546875 48.52734375 C-46.63975586 49.15237793 -47.72482422 49.77741211 -48.84277344 50.42138672 C-54.27159938 53.54930146 -59.69822007 56.68103731 -65.125 59.8125 C-71.64733275 63.57613919 -78.17013762 67.33894622 -84.6953125 71.09765625 C-95.62387858 77.39451076 -106.54247007 83.7077582 -117.4375 90.0625 C-118.43990723 90.64717041 -119.44231445 91.23184082 -120.47509766 91.83422852 C-125.67047918 94.85834228 -125.67047918 94.85834228 -130.80151367 97.98925781 C-133.125 99.3125 -133.125 99.3125 -135.125 99.3125 C-135.125 152.1125 -135.125 204.9125 -135.125 259.3125 C-133.475 259.9725 -131.825 260.6325 -130.125 261.3125 C-128.78152929 262.00734866 -127.45127051 262.72844361 -126.13671875 263.4765625 C-125.43095703 263.87617188 -124.72519531 264.27578125 -123.99804688 264.6875 C-123.27681641 265.1 -122.55558594 265.5125 -121.8125 265.9375 C-121.07193359 266.35773438 -120.33136719 266.77796875 -119.56835938 267.2109375 C-117.75230989 268.24198495 -115.93843467 269.27686046 -114.125 270.3125 C-110.64429705 262.14761756 -107.43656103 253.91869251 -104.4140625 245.57421875 C-103.73709429 243.71618914 -103.06012603 241.85815954 -102.38315582 240.00013065 C-101.66516878 238.02785338 -100.9485544 236.05508252 -100.23236084 234.08215332 C-98.72304255 229.92449117 -97.20970985 225.76829704 -95.69580078 221.61230469 C-93.57384335 215.7861358 -91.45339417 209.95942032 -89.33398438 204.13232422 C-86.21092449 195.54643145 -83.08323108 186.96223253 -79.953125 178.37890625 C-79.7035523 177.69451036 -79.45397961 177.01011448 -79.1968441 176.30497932 C-75.11312615 165.10716234 -71.02251921 153.91187035 -66.92732239 142.71824646 C-64.57798378 136.29497224 -62.23625368 129.86905537 -59.90631104 123.4387207 C-58.69344937 120.09595004 -57.47333893 116.75586564 -56.25079346 113.41662598 C-55.71854935 111.95781778 -55.18956769 110.49781413 -54.66424561 109.03649902 C-53.96846372 107.10190846 -53.26001504 105.17188709 -52.55078125 103.2421875 C-51.98484253 101.68346924 -51.98484253 101.68346924 -51.4074707 100.09326172 C-49.91701821 96.86153626 -48.78470565 94.71380788 -46.125 92.3125 C-43.03141768 91.86708392 -40.50307655 91.72611996 -37.421875 91.82421875 C-36.58408508 91.83129349 -35.74629517 91.83836823 -34.88311768 91.84565735 C-32.21282853 91.87359934 -29.54465292 91.93633387 -26.875 92 C-25.06253033 92.02508329 -23.25002772 92.04789641 -21.4375 92.06835938 C-16.99918829 92.12342496 -12.56245219 92.20969333 -8.125 92.3125 C-6.4893126 97.1672343 -8.08205695 100.57863613 -9.9921875 105.05859375 C-10.65346588 106.68231384 -11.31183846 108.30721945 -11.96777344 109.93310547 C-12.497276 111.23885529 -12.497276 111.23885529 -13.03747559 112.57098389 C-14.9433089 117.37535671 -16.69019878 122.23662617 -18.4453125 127.09765625 C-18.82556076 128.14696823 -19.20580902 129.19628021 -19.59757996 130.27738953 C-20.39848626 132.48857548 -21.19861184 134.70004435 -21.99801636 136.91177368 C-24.19532003 142.98993609 -26.39996111 149.06543553 -28.60546875 155.140625 C-28.83311731 155.76784769 -29.06076588 156.39507038 -29.29531288 157.04129982 C-34.33413702 170.92108172 -39.44539063 184.77392023 -44.5625 198.625 C-56.09535006 229.8538775 -67.45746801 261.14488946 -78.69726562 292.48046875 C-79.11264587 293.63756348 -79.52802612 294.7946582 -79.95599365 295.98681641 C-80.74961776 298.19833498 -81.54218731 300.41023235 -82.33355713 302.62255859 C-82.68593445 303.60434082 -83.03831177 304.58612305 -83.40136719 305.59765625 C-83.71112488 306.46269775 -84.02088257 307.32773926 -84.34002686 308.21899414 C-85.125 310.3125 -85.125 310.3125 -86.125 312.3125 C-89.84776547 310.90689272 -93.26746839 309.2223758 -96.74609375 307.29296875 C-98.38118896 306.38695923 -98.38118896 306.38695923 -100.04931641 305.46264648 C-101.22056721 304.8087705 -102.39162418 304.15454722 -103.5625 303.5 C-104.15681824 303.16880157 -104.75113647 302.83760315 -105.36346436 302.49636841 C-113.71361399 297.8406249 -122.013823 293.1052131 -130.25 288.25 C-131.55215454 287.48369263 -131.55215454 287.48369263 -132.88061523 286.7019043 C-154.17302878 274.04778283 -154.17302878 274.04778283 -158.125 262.3125 C-158.50811005 258.86820412 -158.50811005 258.86820412 -158.51940918 255.1913147 C-158.52550028 254.50973057 -158.53159139 253.82814645 -158.53786707 253.12590826 C-158.55440763 250.86062093 -158.54973435 248.59590124 -158.54492188 246.33056641 C-158.55226744 244.69883139 -158.56085509 243.06710156 -158.57058716 241.43537903 C-158.59276077 237.01586249 -158.59573592 232.59653263 -158.59383965 228.1769681 C-158.59371975 224.48176533 -158.60229164 220.78660184 -158.61061716 217.09141004 C-158.62983634 208.37048356 -158.63274049 199.64965279 -158.62597656 190.92871094 C-158.61933686 181.94507047 -158.64220063 172.96184071 -158.67929029 163.97828352 C-158.7100218 156.25320089 -158.72134358 148.52825013 -158.71745348 140.80310762 C-158.71538953 136.19455675 -158.72081038 131.58632554 -158.74534607 126.97783279 C-158.76766783 122.64215316 -158.76569067 118.30713966 -158.74541855 113.97145653 C-158.74201805 112.38524415 -158.7470561 110.79898646 -158.76140213 109.21283531 C-158.84722603 99.01589084 -157.76247052 92.1018904 -151.30078125 84.03515625 C-145.22893047 78.62522631 -138.42845704 74.95305297 -131.30859375 71.12890625 C-125.66866531 68.09369 -120.14723231 64.86820149 -114.625 61.625 C-106.18290573 56.67981477 -97.72695694 51.76020962 -89.25 46.875 C-88.17041016 46.25278564 -87.09082031 45.63057129 -85.97851562 44.98950195 C-83.7881748 43.72738483 -81.59774498 42.46542215 -79.40722656 41.20361328 C-73.97840056 38.07569851 -68.55182059 34.94389233 -63.125 31.8125 C-60.97396371 30.57160526 -58.82292203 29.33071986 -56.671875 28.08984375 C-52.18183522 25.49948817 -47.69231388 22.9082361 -43.203125 20.31640625 C-37.77258988 17.18122813 -32.34061502 14.04855822 -26.90771484 10.91748047 C-24.43322074 9.49027181 -21.96048952 8.06006888 -19.48828125 6.62890625 C-18.22144084 5.8982872 -16.95452284 5.16780265 -15.6875 4.4375 C-14.65753906 3.84195313 -13.62757813 3.24640625 -12.56640625 2.6328125 C-8.2883768 0.31925417 -4.81622094 0.09243252 0 0 Z " fill="#98C5E6" transform="translate(255.125,76.6875)"/>
<path d="M0 0 C1.59752849 0.00031727 3.19507824 0.01165096 4.79248047 0.03173828 C5.63310028 0.03456818 6.47372009 0.03739807 7.33981323 0.04031372 C10.02990843 0.05152648 12.71967307 0.07663275 15.40966797 0.10205078 C17.23127775 0.11207918 19.05289274 0.12120527 20.87451172 0.12939453 C25.34469155 0.15146937 29.81462368 0.18600644 34.28466797 0.22705078 C35.73881529 4.79155601 34.21853339 8.12184509 32.62060547 12.45751953 C32.3217897 13.29397003 32.02297394 14.13042053 31.71510315 14.99221802 C30.70726001 17.80361452 29.68358943 20.60897373 28.65966797 23.41455078 C27.93311317 25.42950771 27.20730099 27.44473254 26.48217773 29.46020508 C19.94275028 47.58950199 13.24613209 65.66213171 6.55957031 83.73754883 C-0.38682109 102.53119983 -7.18288914 121.37604736 -13.93590164 140.23988724 C-22.09444179 163.02805301 -30.3875221 185.76302448 -38.80322266 208.45751953 C-43.57480975 221.33596687 -48.23542508 234.24409043 -52.71533203 247.22705078 C-59.69805174 246.45346656 -65.09959566 243.01532021 -71.07592773 239.59033203 C-73.02956861 238.47606031 -74.99736104 237.39033881 -76.96728516 236.30517578 C-78.21368526 235.59852846 -79.45916247 234.89025031 -80.70361328 234.18017578 C-82.39804565 233.22353027 -82.39804565 233.22353027 -84.12670898 232.24755859 C-86.71533203 230.22705078 -86.71533203 230.22705078 -87.45820618 227.87805176 C-87.73611409 225.01278504 -87.4168404 223.46735925 -86.41796875 220.79052734 C-85.94767494 219.5020137 -85.94767494 219.5020137 -85.46788025 218.18746948 C-84.93681419 216.7916716 -84.93681419 216.7916716 -84.39501953 215.36767578 C-84.02925308 214.37631622 -83.66348663 213.38495667 -83.28663635 212.36355591 C-82.06605715 209.06365222 -80.82806888 205.77055321 -79.59033203 202.47705078 C-78.72458566 200.14499285 -77.86010677 197.81246402 -76.99682617 195.47949219 C-75.17472873 190.56063609 -73.34607254 185.64427654 -71.51171875 180.72998047 C-67.46622687 169.88908548 -63.46804916 159.03073219 -59.46850586 148.17282104 C-58.14370545 144.57728102 -56.81728182 140.98234264 -55.49072266 137.38745117 C-49.78750535 121.92126036 -44.15873824 106.42975458 -38.59033203 90.91455078 C-32.6498383 74.3650357 -26.68450946 57.82500386 -20.66143799 41.30532837 C-19.83374089 39.03434926 -19.00701212 36.76301696 -18.18133545 34.49130249 C-5.76987497 0.35260768 -5.76987497 0.35260768 0 0 Z " fill="#FDFDFD" transform="translate(270.71533203125,168.77294921875)"/>
<path d="M0 0 C0.83778992 0.00707474 1.67557983 0.01414948 2.53875732 0.0214386 C5.20904647 0.04938059 7.87722208 0.11211512 10.546875 0.17578125 C12.35934467 0.20086454 14.17184728 0.22367766 15.984375 0.24414062 C20.42268671 0.29920621 24.85942281 0.38547458 29.296875 0.48828125 C30.9325624 5.34301555 29.33981805 8.75441738 27.4296875 13.234375 C26.76840912 14.85809509 26.11003654 16.4830007 25.45410156 18.10888672 C25.10109985 18.9793866 24.74809814 19.84988647 24.38439941 20.74676514 C22.4785661 25.55113796 20.73167622 30.41240742 18.9765625 35.2734375 C18.40619011 36.84740547 18.40619011 36.84740547 17.82429504 38.45317078 C17.02338874 40.66435673 16.22326316 42.8758256 15.42385864 45.08755493 C13.22655497 51.16571734 11.02191389 57.24121678 8.81640625 63.31640625 C8.58875769 63.94362894 8.36110912 64.57085163 8.12656212 65.21708107 C3.08773798 79.09686297 -2.02351563 92.94970148 -7.140625 106.80078125 C-18.67347506 138.02965875 -30.03559301 169.32067071 -41.27539062 200.65625 C-41.69077087 201.81334473 -42.10615112 202.97043945 -42.53411865 204.16259766 C-43.32774276 206.37411623 -44.12031231 208.5860136 -44.91168213 210.79833984 C-45.26405945 211.78012207 -45.61643677 212.7619043 -45.97949219 213.7734375 C-46.44412872 215.07099976 -46.44412872 215.07099976 -46.91815186 216.39477539 C-47.703125 218.48828125 -47.703125 218.48828125 -48.703125 220.48828125 C-52.67543291 219.00430434 -56.28994353 217.14548701 -59.9921875 215.08203125 C-60.57729095 214.75666382 -61.16239441 214.43129639 -61.76522827 214.09606934 C-62.99465859 213.41164125 -64.22329487 212.72578509 -65.45117188 212.03857422 C-67.327611 210.98856887 -69.20654435 209.94314455 -71.0859375 208.8984375 C-80.24284862 203.79513217 -80.24284862 203.79513217 -83.703125 201.48828125 C-81.58385032 194.09743177 -79.11749181 186.87442625 -76.484375 179.65234375 C-76.07431717 178.52089432 -75.66425934 177.38944489 -75.24177551 176.22370911 C-74.12991446 173.15782031 -73.01556516 170.09285121 -71.89993668 167.02833176 C-70.9589679 164.44226324 -70.02001962 161.85546306 -69.0810709 159.26866055 C-65.96099547 150.67304859 -62.83320982 142.08025252 -59.703125 133.48828125 C-59.27292053 132.30719788 -58.84271606 131.1261145 -58.3994751 129.90924072 C-48.59985224 103.00982277 -38.764787 76.12306861 -28.86987305 49.25854492 C-28.14371151 47.2869488 -27.41755577 45.31535055 -26.69140625 43.34375 C-26.34416 42.40105759 -25.99691376 41.45836517 -25.6391449 40.48710632 C-23.82313431 35.55162903 -22.01965788 30.61203426 -20.23860168 25.66383362 C-19.52781451 23.689665 -18.81350381 21.71681192 -18.09790039 19.74438477 C-17.28847903 17.5094107 -16.48612102 15.271857 -15.69311523 13.03100586 C-15.17599976 11.6099353 -15.17599976 11.6099353 -14.6484375 10.16015625 C-14.36500488 9.36706055 -14.08157227 8.57396484 -13.78955078 7.75683594 C-10.4795138 0.8451812 -7.44969842 -0.23718227 0 0 Z " fill="#FDFDFD" transform="translate(217.703125,168.51171875)"/>
<path d="M0 0 C2.16874252 0.50603992 3.99967627 0.99983813 6 2 C6.90316772 3.95205688 6.90316772 3.95205688 7.83740234 6.56494141 C8.37210899 8.04340797 8.37210899 8.04340797 8.9176178 9.55174255 C9.3031633 10.64068314 9.6887088 11.72962372 10.0859375 12.8515625 C10.49512924 13.98872208 10.90432098 15.12588165 11.32591248 16.29750061 C12.21519128 18.77165357 13.10180975 21.24657809 13.98403931 23.72323608 C15.38183818 27.64714447 16.78896886 31.56766129 18.19799805 35.48754883 C19.65862298 39.5520087 21.11879942 43.6166241 22.57579041 47.68238831 C25.87719349 56.89294183 29.2065663 66.09291012 32.55859375 75.28515625 C33.00350159 76.50547546 33.44840942 77.72579468 33.90679932 78.98309326 C35.61888516 83.67746126 37.33176908 88.37153626 39.04632568 93.06500244 C43.23336596 104.53098912 47.39306907 116.0064922 51.44921875 127.51953125 C51.77872025 128.44376389 52.10822174 129.36799652 52.44770813 130.32023621 C54.37610122 135.83495255 55.84099648 141.27262426 57 147 C53.44545892 149.0660578 49.88907638 151.12890661 46.33105469 153.18896484 C45.12418043 153.88830825 43.91778814 154.58848417 42.71191406 155.28955078 C36.23231346 159.05588579 29.75972424 162.75399381 23 166 C22.80889648 165.47680176 22.61779297 164.95360352 22.42089844 164.41455078 C21.53215052 161.98413002 20.64108315 159.5545655 19.75 157.125 C19.44964844 156.30257812 19.14929688 155.48015625 18.83984375 154.6328125 C18.53691406 153.8078125 18.23398437 152.9828125 17.921875 152.1328125 C17.51340332 151.01737061 17.51340332 151.01737061 17.09667969 149.87939453 C16.17032132 147.44718825 15.20877889 145.03581984 14.23291016 142.62329102 C11.75767974 136.45358271 9.44363046 130.2248465 7.13057327 123.99305153 C6.33174466 121.84114543 5.53123821 119.68986982 4.73031616 117.53874207 C2.45594208 111.42926682 0.18459232 105.3186685 -2.0859375 99.20776367 C-3.48305258 95.44791952 -4.88199622 91.68875947 -6.28194046 87.92996788 C-6.80799922 86.5163848 -7.33337415 85.10254701 -7.85798264 83.68842506 C-8.59942208 81.68983935 -9.3429855 79.69205852 -10.08740234 77.69458008 C-10.32383139 77.05779233 -10.56026043 76.42100458 -10.80385399 75.76492023 C-12.0450738 72.44835641 -13.33555494 69.16131738 -14.70245361 65.89437866 C-14.98118128 65.22264712 -15.25990894 64.55091558 -15.5470829 63.85882854 C-16.32079178 62.00633517 -17.10766874 60.15935726 -17.89541626 58.31278992 C-19.62229015 53.13367112 -19.35675749 49.20738007 -17.47119141 44.14379883 C-17.13729401 43.2329805 -16.80339661 42.32216217 -16.4593811 41.38374329 C-15.91101089 39.93502083 -15.91101089 39.93502083 -15.3515625 38.45703125 C-14.79267838 36.94891121 -14.79267838 36.94891121 -14.22250366 35.4103241 C-13.43514973 33.29145174 -12.64310327 31.17431792 -11.84667969 29.05883789 C-10.62675674 25.81716815 -9.42156786 22.57031605 -8.21875 19.32226562 C-7.45137688 17.26270168 -6.68317596 15.20344593 -5.9140625 13.14453125 C-5.55253082 12.17264359 -5.19099915 11.20075592 -4.81851196 10.19941711 C-4.47831024 9.29805527 -4.13810852 8.39669342 -3.78759766 7.46801758 C-3.34125473 6.27937859 -3.34125473 6.27937859 -2.88589478 5.06672668 C-2 3 -2 3 0 0 Z " fill="#0E89CE" transform="translate(313,201)"/>
<path d="M0 0 C3.29270054 1.70566414 3.8833921 4.81361039 5.02099609 8.14135742 C5.28816437 8.8803981 5.55533264 9.61943878 5.83059692 10.38087463 C6.71365307 12.83373958 7.57413465 15.29392755 8.43505859 17.75463867 C9.04733923 19.46779497 9.66129549 21.18035326 10.27685547 22.89233398 C11.56212041 26.47036503 12.84000109 30.05091812 14.11376953 33.63305664 C15.99588218 38.90870401 17.9291076 44.16438507 19.88037109 49.41479492 C20.19066254 50.25052536 20.50095398 51.0862558 20.82064819 51.9473114 C22.02028202 55.17684478 23.22078965 58.40605076 24.42303467 61.63461304 C28.53930663 72.70442629 32.3878688 83.84214772 36.06005859 95.06713867 C34.82703003 95.77060425 34.82703003 95.77060425 33.5690918 96.48828125 C30.50308551 98.23784206 27.43736227 99.98789682 24.37182617 101.73828125 C23.04804514 102.49401166 21.72415342 103.24954824 20.40014648 104.00488281 C18.49091534 105.09412826 16.5820907 106.1840831 14.67333984 107.27416992 C14.08668045 107.60866653 13.50002106 107.94316315 12.89558411 108.28779602 C10.32737054 109.75529716 7.78262502 111.23997291 5.27172852 112.80419922 C3.06005859 114.06713867 3.06005859 114.06713867 1.06005859 114.06713867 C0.72482178 113.16664795 0.38958496 112.26615723 0.04418945 111.33837891 C-2.59644554 104.263796 -5.26687728 97.2025195 -7.99789429 90.16226196 C-9.43813135 86.44026804 -10.86169429 82.71199815 -12.28344727 78.98291016 C-13.01857682 77.06560171 -13.76055323 75.15090574 -14.5090332 73.23876953 C-15.60710985 70.42907633 -16.67998522 67.61082773 -17.74853516 64.78979492 C-18.08485458 63.94586685 -18.42117401 63.10193878 -18.76768494 62.23243713 C-22.38469117 52.51749175 -19.9170813 45.05061003 -16.41259766 35.63354492 C-16.06361923 34.67439682 -15.71464081 33.71524872 -15.35508728 32.72703552 C-14.62098658 30.7160098 -13.88202459 28.70675256 -13.13842773 26.69921875 C-11.99830867 23.6184715 -10.87525 20.5318931 -9.75439453 17.4440918 C-9.03728645 15.48604633 -8.31922145 13.52835099 -7.60009766 11.57104492 C-7.26357681 10.64715469 -6.92705597 9.72326447 -6.58033752 8.77137756 C-6.26338425 7.91966476 -5.94643097 7.06795197 -5.61987305 6.19042969 C-5.34309219 5.44036148 -5.06631134 4.69029327 -4.78114319 3.91749573 C-3.65028538 1.42999419 -2.84790337 0.09856197 0 0 Z " fill="#0F8CD1" transform="translate(285.93994140625,280.932861328125)"/>
</svg>
