<?xml version="1.0" encoding="UTF-8"?>
<svg version="1.1" xmlns="http://www.w3.org/2000/svg" width="512" height="512">
<path d="M0 0 C1.01790619 0.00215515 2.03581238 0.0043103 3.08456421 0.00653076 C17.69363523 0.05620146 32.02575853 0.30709809 46.375 3.3125 C47.34985352 3.51117676 48.32470703 3.70985352 49.32910156 3.91455078 C97.7109774 14.03517194 141.69928269 35.9516877 177.375 70.3125 C178.3640332 71.26068604 178.3640332 71.26068604 179.37304688 72.22802734 C188.86130305 81.37247479 197.6012044 90.66984009 205.375 101.3125 C206.23306152 102.46355017 207.09113451 103.61459177 207.94921875 104.765625 C213.98736829 112.95680614 219.34595521 121.47054105 224.375 130.3125 C224.73948242 130.94430176 225.10396484 131.57610352 225.47949219 132.22705078 C247.08534998 169.97532572 256.85198095 212.74189997 256.6875 255.9375 C256.68534485 256.95540619 256.6831897 257.97331238 256.68096924 259.02206421 C256.63129854 273.63113523 256.38040191 287.96325853 253.375 302.3125 C253.07698486 303.77478027 253.07698486 303.77478027 252.77294922 305.26660156 C242.65232806 353.6484774 220.7358123 397.63678269 186.375 433.3125 C185.74287598 433.97185547 185.11075195 434.63121094 184.45947266 435.31054688 C175.31502521 444.79880305 166.01765991 453.5387044 155.375 461.3125 C154.22394983 462.17056152 153.07290823 463.02863451 151.921875 463.88671875 C143.73224019 469.92427396 135.22961724 475.30707302 126.375 480.3125 C125.66778809 480.7146875 124.96057617 481.116875 124.23193359 481.53125 C101.09654164 494.5566741 75.92537591 503.30551461 49.9375 508.625 C49.21860596 508.77235596 48.49971191 508.91971191 47.7590332 509.0715332 C33.08339502 511.86090125 18.55831162 512.66142619 3.64770508 512.62817383 C0.70811513 512.6250221 -2.2304558 512.64854926 -5.16992188 512.67382812 C-18.54306192 512.71848737 -31.43916711 511.51301542 -44.625 509.3125 C-46.33055054 509.03031616 -46.33055054 509.03031616 -48.07055664 508.74243164 C-91.33802759 500.97044532 -132.38793216 480.98345309 -165.625 452.3125 C-166.37007813 451.67828125 -167.11515625 451.0440625 -167.8828125 450.390625 C-181.38779833 438.57948485 -194.05918743 425.82889772 -204.625 411.3125 C-205.48149066 410.16255169 -206.33826433 409.01281411 -207.1953125 407.86328125 C-213.23534209 399.67315742 -218.61867614 391.16870382 -223.625 382.3125 C-224.0271875 381.60528809 -224.429375 380.89807617 -224.84375 380.16943359 C-237.8691741 357.03404164 -246.61801461 331.86287591 -251.9375 305.875 C-252.08485596 305.15610596 -252.23221191 304.43721191 -252.3840332 303.6965332 C-255.35789088 288.05024391 -255.99800362 272.57681954 -255.9375 256.6875 C-255.93534485 255.66959381 -255.9331897 254.65168762 -255.93096924 253.60293579 C-255.88129854 238.99386477 -255.63040191 224.66174147 -252.625 210.3125 C-252.42632324 209.33764648 -252.22764648 208.36279297 -252.02294922 207.35839844 C-241.90232806 158.9765226 -219.9858123 114.98821731 -185.625 79.3125 C-184.99287598 78.65314453 -184.36075195 77.99378906 -183.70947266 77.31445312 C-174.56502521 67.82619695 -165.26765991 59.0862956 -154.625 51.3125 C-153.47394983 50.45443848 -152.32290823 49.59636549 -151.171875 48.73828125 C-142.98224019 42.70072604 -134.47961724 37.31792698 -125.625 32.3125 C-124.91778809 31.9103125 -124.21057617 31.508125 -123.48193359 31.09375 C-100.34654164 18.0683259 -75.17537591 9.31948539 -49.1875 4 C-48.46860596 3.85264404 -47.74971191 3.70528809 -47.0090332 3.5534668 C-31.36274391 0.57960912 -15.88931954 -0.06050362 0 0 Z " fill="#C42436" transform="translate(255.625,-0.3125)"/>
<path d="M0 0 C7.58381595 6.18638403 13.68077505 14.34832599 15.625 24.125 C16.26480383 34.63571052 15.06466235 44.49666384 13 54.8125 C12.8652829 55.50477692 12.7305658 56.19705383 12.59176636 56.91030884 C7.83345303 81.30757456 1.58846571 105.90151648 -20.11328125 120.82421875 C-38.17545257 131.21230692 -57.91788095 133.22537375 -78.2109375 129.40234375 C-91.1290256 125.7896581 -102.51297466 119.61338336 -109.67578125 108.01953125 C-117.35178166 93.58865048 -114.51473177 78.91284172 -110.97802734 63.81884766 C-110.32990825 60.92356583 -109.76159834 58.02007321 -109.20703125 55.10546875 C-105.1379031 33.88668173 -99.12146034 14.52599799 -80.7421875 1.21875 C-75.19951476 -2.42490116 -69.59228845 -5.55559706 -63.375 -7.875 C-62.63894531 -8.1740625 -61.90289062 -8.473125 -61.14453125 -8.78125 C-42.33711837 -15.23975744 -16.112758 -11.44372017 0 0 Z " fill="#FEFDFD" transform="translate(236.375,195.875)"/>
<path d="M0 0 C1.37658076 0.0017137 2.75316479 0.00164279 4.12974548 -0.00012207 C7.01576982 0.00152989 9.9010163 0.02018706 12.78686523 0.05175781 C16.45262566 0.09117459 20.11735621 0.09583274 23.783288 0.08829498 C26.62929913 0.08519448 29.47508687 0.09745793 32.32104301 0.11442566 C34.31923537 0.12471291 36.31747028 0.12530086 38.31568909 0.12561035 C52.79744709 0.31080582 68.66752029 3.41741712 79.46875 13.76953125 C86.535273 21.42629747 88.6415786 28.26283495 88.46484375 38.734375 C87.19428943 54.42572087 80.67705902 67.93244988 69.15234375 78.59375 C57.96640196 87.35799305 43.20129367 90.78136278 29.25390625 90.69140625 C28.41894623 90.6899913 27.58398621 90.68857635 26.72372437 90.68711853 C24.07489333 90.68155174 21.42614895 90.66900547 18.77734375 90.65625 C16.97395956 90.6512307 15.17057404 90.64666855 13.3671875 90.64257812 C8.96220654 90.6315932 4.55728981 90.61435163 0.15234375 90.59375 C-0.04343262 91.57263184 -0.04343262 91.57263184 -0.24316406 92.57128906 C-0.42717773 93.49135742 -0.61119141 94.41142578 -0.80078125 95.359375 C-1.00590332 96.38595215 -1.21102539 97.4125293 -1.42236328 98.47021484 C-1.8749646 100.73125786 -2.32908222 102.99199784 -2.78466797 105.25244141 C-3.87986922 110.69616805 -4.95845318 116.14065629 -5.96484375 121.6015625 C-6.1359668 122.51131836 -6.30708984 123.42107422 -6.48339844 124.35839844 C-6.80338652 126.06564024 -7.11431523 127.77461133 -7.41503906 129.48535156 C-8.73616487 136.44249966 -8.73616487 136.44249966 -11.84765625 138.59375 C-14.89453125 138.96606445 -14.89453125 138.96606445 -18.59765625 138.95703125 C-19.25217773 138.95752975 -19.90669922 138.95802826 -20.58105469 138.95854187 C-21.96292156 138.95620457 -23.34479294 138.94649615 -24.7265625 138.92993164 C-26.84023149 138.9063329 -28.95263893 138.9093732 -31.06640625 138.91601562 C-41.42876778 138.87300898 -41.42876778 138.87300898 -44.84765625 136.59375 C-44.22045248 130.32798433 -43.30696757 124.20918855 -42.09765625 118.03125 C-41.92355225 117.13140381 -41.74944824 116.23155762 -41.57006836 115.30444336 C-38.70320984 100.60153661 -35.64531738 85.94191255 -32.28515625 71.34375 C-30.76081988 64.71355868 -29.29781359 58.07921285 -27.97265625 51.40625 C-27.81845215 50.63821045 -27.66424805 49.8701709 -27.50537109 49.07885742 C-26.51320231 44.09221127 -25.56977941 39.0981606 -24.6541748 34.09700012 C-24.06752723 30.91383671 -23.46470268 27.73383258 -22.86004639 24.55404663 C-22.56206378 22.96587737 -22.27115154 21.37636389 -21.98760986 19.78555298 C-21.58516459 17.53166405 -21.15838031 15.28357653 -20.7265625 13.03515625 C-20.61195175 12.35886169 -20.497341 11.68256714 -20.3792572 10.98577881 C-19.75098413 7.83701554 -18.74304886 5.41892329 -17.09570312 2.66577148 C-11.75432052 -0.7416484 -6.197193 -0.07728955 0 0 Z " fill="#FEFCFC" transform="translate(301.84765625,186.40625)"/>
<path d="M0 0 C3.83632083 2.88231512 6.67283026 6.03802204 8.21484375 10.6640625 C9.21614312 22.72889915 7.03857384 33.98496118 4.21484375 45.6640625 C3.99521973 46.581875 3.7755957 47.4996875 3.54931641 48.4453125 C-2.28514925 72.22912156 -2.28514925 72.22912156 -11.91015625 79.1640625 C-19.97338558 83.37096476 -29.33744945 84.37321652 -38.24609375 82.01171875 C-42.59031496 79.80166735 -45.00001627 76.05805103 -46.78515625 71.6640625 C-47.34294527 68.58167494 -47.35539185 65.60235491 -47.28515625 62.4765625 C-47.27452148 61.60942627 -47.26388672 60.74229004 -47.25292969 59.84887695 C-47.00105802 51.00706543 -45.40456908 42.55533336 -43.34082031 33.97558594 C-42.81437269 31.78560085 -42.32462137 29.59013618 -41.83984375 27.390625 C-39.35583374 16.62351333 -35.16655172 7.94516848 -25.78515625 1.6640625 C-18.58994712 -2.19051382 -7.53131288 -3.6124951 0 0 Z " fill="#C42638" transform="translate(206.78515625,215.3359375)"/>
<path d="M0 0 C4.02009457 -0.07455949 8.03991733 -0.12879358 12.06054688 -0.16479492 C13.42617816 -0.17981428 14.79176176 -0.20023608 16.15722656 -0.22631836 C18.12803905 -0.26300137 20.09921408 -0.27818551 22.0703125 -0.29296875 C23.25383301 -0.3086792 24.43735352 -0.32438965 25.65673828 -0.34057617 C29.43014341 0.04381846 31.78788669 1.00823338 35 3 C38.39797363 8.09696045 37.53769382 14.05176216 37 20 C35.06486867 26.47609293 29.83078311 30.36956277 24.171875 33.62890625 C18.4541799 36.00467984 12.1333853 35.31165549 6.0625 35.1875 C4.80630859 35.17396484 3.55011719 35.16042969 2.25585938 35.14648438 C-0.82987279 35.11128591 -3.91471024 35.06204305 -7 35 C-7.48416635 27.96413586 -5.69780247 21.49439977 -4.0625 14.6875 C-3.78470703 13.49576172 -3.50691406 12.30402344 -3.22070312 11.07617188 C-1.15472274 2.30944549 -1.15472274 2.30944549 0 0 Z " fill="#CA293B" transform="translate(315,214)"/>
</svg>
